# xmcd
#
# Track frame offsets: 
#        150
#        44318
#        68842
#        101639
#        159544
#        231591
#        274381
#        311977
#
# Disc length: 4540 seconds
#
# Revision: 0
# Processed by: cddbd v1.4PL0 Copyright (c) Steve Scherf et al.
# Submitted via: ExactAudioCopy v0.90b4
#
DISCID=7611ba08
DTITLE=Allman Brothers Band - Live Red Rocks [CD1]
DYEAR=2003
DGENRE=Blues
TTITLE0=One Way Out
TTITLE1=Statesboro Blues
TTITLE2=Wasted Words
TTITLE3=Rocking Horse
TTITLE4=Desdemona
TTITLE5=The High Cost Of Low Living
TTITLE6=Soulshine
TTITLE7=Every Hungry Woman
EXTD=
EXTT0=
EXTT1=
EXTT2=
EXTT3=
EXTT4=
EXTT5=
EXTT6=
EXTT7=
PLAYORDER=
